<?xml version="1.0" standalone="no"?>
<!DOCTYPE svg PUBLIC "-//W3C//DTD SVG 20010904//EN"
 "http://www.w3.org/TR/2001/REC-SVG-20010904/DTD/svg10.dtd">
<svg version="1.0" xmlns="http://www.w3.org/2000/svg"
 width="512.000000pt" height="512.000000pt" viewBox="0 0 512.000000 512.000000"
 preserveAspectRatio="xMidYMid meet">

<g transform="translate(0.000000,512.000000) scale(0.100000,-0.100000)"
fill="#000000" stroke="none">
<path d="M915 5102 c-65 -22 -109 -55 -146 -105 -49 -67 -59 -121 -59 -308 l0
-167 -133 -4 c-125 -3 -136 -5 -174 -30 -22 -15 -51 -44 -64 -65 l-24 -38 -3
-1960 c-2 -1426 0 -1976 8 -2020 36 -191 197 -354 388 -394 75 -16 3629 -16
3704 0 191 40 352 203 388 394 8 44 10 660 8 2275 l-3 2215 -28 57 c-32 64
-80 111 -146 142 l-46 21 -1810 2 c-1698 2 -1813 1 -1860 -15z m3304 -214 c-5
-20 -9 -641 -9 -1540 0 -1147 -3 -1513 -12 -1533 -13 -29 -55 -55 -88 -55 -29
0 -76 26 -86 47 -5 10 -11 594 -14 1299 l-5 1280 -27 41 c-15 22 -44 51 -65
64 l-38 24 -1482 3 -1483 2 0 163 c1 173 6 198 51 223 20 11 319 13 1646 14
l1622 0 -10 -32z m340 17 c16 -8 33 -27 40 -42 8 -21 11 -585 9 -2233 l-3
-2205 -21 -46 c-31 -66 -78 -114 -142 -146 -47 -23 -70 -28 -132 -28 -125 0
-222 62 -274 174 -20 45 -21 61 -24 622 l-3 576 51 -11 c101 -20 222 27 287
112 67 88 63 -11 63 1656 1 1235 3 1515 14 1535 26 47 84 63 135 36z m-747
-2547 l3 -1963 22 -59 c13 -33 34 -77 48 -98 l25 -38 -1587 2 -1588 3 -57 28
c-64 32 -111 80 -142 146 l-21 46 -3 1948 -2 1947 1650 0 1650 0 2 -1962z"/>
<path d="M859 4005 c-49 -27 -50 -37 -47 -539 l3 -468 28 -24 28 -24 478 0
477 0 27 28 27 28 0 476 0 477 -24 28 -24 28 -474 2 c-395 2 -477 0 -499 -12z
m821 -520 l0 -335 -335 0 -335 0 0 335 0 335 335 0 335 0 0 -335z"/>
<path d="M2131 4004 c-13 -9 -29 -32 -37 -50 -12 -29 -12 -39 0 -68 29 -70 -9
-66 698 -66 473 0 644 3 663 12 29 13 55 55 55 88 0 33 -26 75 -55 88 -19 9
-190 12 -663 12 -573 0 -640 -2 -661 -16z"/>
<path d="M2122 3555 c-36 -30 -45 -69 -26 -113 26 -64 14 -63 720 -60 l636 3
29 33 c16 18 29 44 29 58 0 33 -25 81 -49 94 -13 6 -241 10 -665 10 l-644 0
-30 -25z"/>
<path d="M2142 3135 c-62 -27 -75 -110 -25 -160 l26 -25 653 0 653 0 26 23
c56 48 40 133 -30 163 -51 21 -1254 20 -1303 -1z"/>
<path d="M874 2250 c-12 -4 -31 -21 -44 -37 -29 -37 -23 -98 15 -130 l26 -23
1289 0 1289 0 26 23 c17 14 28 36 32 63 5 36 1 46 -25 75 l-30 34 -1279 2
c-703 1 -1288 -2 -1299 -7z"/>
<path d="M874 1860 c-30 -12 -64 -58 -64 -87 0 -32 26 -80 49 -93 27 -14 2575
-14 2602 0 24 13 49 61 49 94 0 14 -13 40 -29 58 l-29 33 -1279 2 c-703 1
-1288 -2 -1299 -7z"/>
<path d="M844 1056 l-34 -34 0 -221 c0 -241 5 -266 55 -289 20 -9 333 -12
1296 -12 1380 0 1311 -3 1337 55 8 17 12 96 12 241 0 234 -5 259 -57 283 -17
8 -404 11 -1299 11 l-1276 0 -34 -34z m2466 -261 l0 -95 -1150 0 -1150 0 0 95
0 95 1150 0 1150 0 0 -95z"/>
</g>
</svg>
