<?xml version="1.0" standalone="no"?>
<!DOCTYPE svg PUBLIC "-//W3C//DTD SVG 20010904//EN"
 "http://www.w3.org/TR/2001/REC-SVG-20010904/DTD/svg10.dtd">
<svg version="1.0" xmlns="http://www.w3.org/2000/svg"
 width="512.000000pt" height="512.000000pt" viewBox="0 0 512.000000 512.000000"
 preserveAspectRatio="xMidYMid meet">

<g transform="translate(0.000000,512.000000) scale(0.100000,-0.100000)"
fill="#000000" stroke="none">
<path d="M4550 4885 c-74 -21 -127 -54 -184 -114 -73 -79 -101 -147 -101 -251
0 -47 3 -98 8 -115 7 -29 -10 -50 -385 -476 -216 -245 -412 -466 -435 -493
l-42 -47 -52 15 c-94 28 -215 14 -295 -35 l-31 -19 -391 242 c-377 234 -391
243 -397 278 -19 101 -112 218 -210 264 -106 51 -233 51 -339 3 -64 -30 -145
-106 -175 -165 -26 -50 -51 -144 -51 -189 0 -30 -44 -80 -451 -515 l-451 -481
-87 2 c-68 2 -100 -3 -144 -19 -257 -96 -339 -424 -157 -623 157 -171 413
-177 569 -12 29 30 64 81 79 112 23 49 27 71 27 148 0 50 -2 99 -5 111 -4 16
81 113 418 472 233 249 424 452 426 452 2 0 23 -7 47 -16 95 -34 256 -13 336
44 l28 20 381 -236 382 -237 5 -43 c13 -113 120 -248 235 -293 81 -33 213 -32
295 0 74 29 165 112 199 183 29 60 51 153 46 198 -2 26 47 86 454 549 l458
519 97 4 c79 3 109 9 154 30 190 87 275 302 199 503 -32 83 -131 183 -213 213
-78 29 -177 36 -247 17z"/>
<path d="M4500 3479 c-93 -11 -135 -24 -182 -59 -47 -34 -73 -67 -99 -124 -18
-43 -20 -82 -31 -741 -9 -526 -9 -868 0 -1397 l11 -700 24 -52 c30 -65 78
-113 142 -142 114 -52 449 -54 564 -3 56 24 115 80 144 134 18 36 21 67 30
280 5 132 9 663 9 1180 0 517 -4 1048 -9 1180 -11 269 -15 285 -90 357 -53 52
-113 75 -225 87 -110 12 -180 12 -288 0z"/>
<path d="M1750 2634 c-145 -17 -212 -44 -269 -109 -56 -64 -62 -91 -72 -330
-13 -286 -13 -1225 0 -1520 10 -250 15 -275 72 -340 73 -83 164 -108 384 -108
218 0 314 26 381 105 60 71 64 93 74 395 12 357 12 1049 0 1406 -8 236 -12
284 -28 320 -41 92 -114 148 -217 166 -66 12 -270 22 -325 15z"/>
<path d="M3085 1979 c-128 -18 -214 -76 -254 -169 -28 -64 -40 -284 -41 -695
0 -392 14 -654 38 -709 61 -136 163 -179 427 -179 150 0 247 13 305 43 46 23
105 88 125 137 24 56 36 295 36 698 0 396 -12 644 -34 697 -18 44 -77 110
-123 139 -67 41 -316 61 -479 38z"/>
<path d="M263 1326 c-40 -8 -88 -24 -108 -36 -52 -32 -104 -98 -120 -152 -49
-167 -40 -640 14 -746 26 -51 87 -107 141 -131 118 -52 461 -49 575 5 50 24
105 81 131 138 44 97 57 474 24 676 -19 114 -94 204 -195 236 -70 23 -363 28
-462 10z"/>
</g>
</svg>
