<?xml version="1.0" standalone="no"?>
<!DOCTYPE svg PUBLIC "-//W3C//DTD SVG 20010904//EN"
 "http://www.w3.org/TR/2001/REC-SVG-20010904/DTD/svg10.dtd">
<svg version="1.0" xmlns="http://www.w3.org/2000/svg"
 width="512.000000pt" height="512.000000pt" viewBox="0 0 512.000000 512.000000"
 preserveAspectRatio="xMidYMid meet">

<g transform="translate(0.000000,512.000000) scale(0.100000,-0.100000)"
fill="#000000" stroke="none">
<path d="M78 4679 c-23 -12 -46 -35 -58 -59 -20 -39 -20 -55 -20 -2057 0
-1901 1 -2020 18 -2053 9 -19 32 -45 51 -57 l34 -23 2457 0 2457 0 34 23 c19
12 42 38 51 57 17 33 18 152 18 2053 0 2003 0 2018 -20 2057 -13 26 -34 47
-60 60 -39 20 -53 20 -2482 20 -2413 -1 -2443 -1 -2480 -21z m732 -409 l0
-130 -255 0 -255 0 0 130 0 130 255 0 255 0 0 -130z m810 0 l0 -130 -255 0
-255 0 0 130 0 130 255 0 255 0 0 -130z m800 0 l0 -130 -250 0 -250 0 0 130 0
130 250 0 250 0 0 -130z m800 0 l0 -130 -250 0 -250 0 0 130 0 130 250 0 250
0 0 -130z m810 0 l0 -130 -255 0 -255 0 0 130 0 130 255 0 255 0 0 -130z m790
0 l0 -130 -245 0 -245 0 0 130 0 130 245 0 245 0 0 -130z m-2158 -1288 c511
-298 518 -303 526 -396 5 -68 -10 -114 -51 -154 -29 -28 -768 -466 -899 -533
-108 -55 -222 -31 -279 59 l-29 46 0 552 c0 366 4 562 11 581 28 76 113 126
201 119 54 -4 86 -21 520 -274z m-1852 -2122 l0 -130 -255 0 -255 0 0 130 0
130 255 0 255 0 0 -130z m808 -2 l3 -128 -256 0 -255 0 0 130 0 130 253 -2
252 -3 3 -127z m802 2 l0 -130 -250 0 -250 0 0 130 0 130 250 0 250 0 0 -130z
m800 0 l0 -130 -250 0 -250 0 0 130 0 130 250 0 250 0 0 -130z m808 -2 l3
-128 -256 0 -255 0 0 130 0 130 253 -2 252 -3 3 -127z m792 2 l0 -130 -245 0
-245 0 0 130 0 130 245 0 245 0 0 -130z"/>
</g>
</svg>
